<?xml version="1.0" encoding="UTF-8" standalone="no"?>
<!DOCTYPE svg PUBLIC "-//W3C//DTD SVG 1.1//EN" "http://www.w3.org/Graphics/SVG/1.1/DTD/svg11.dtd">
<svg width="100%" height="100%" viewBox="0 0 200 200" version="1.1" xmlns="http://www.w3.org/2000/svg" xmlns:xlink="http://www.w3.org/1999/xlink" xml:space="preserve" xmlns:serif="http://www.serif.com/" style="fill-rule:evenodd;clip-rule:evenodd;stroke-linecap:round;stroke-linejoin:round;stroke-miterlimit:1.5;">
    <g transform="matrix(1,0,0,1,0,-247)">
        <g id="asteroid1" transform="matrix(1.43885,0,0,1.43885,-168.345,203.835)">
            <rect x="117" y="30" width="139" height="139" style="fill:none;"/>
            <clipPath id="_clip1">
                <rect x="117" y="30" width="139" height="139"/>
            </clipPath>
            <g clip-path="url(#_clip1)">
                <g transform="matrix(0.875537,0,3.67693e-16,0.894938,97.689,2.54157)">
                    <path d="M107.5,32C171.906,48.17 165.554,45.614 176.35,104.38C184.028,146.171 149.721,186 107.5,186C69.594,186 72.998,174.837 42.28,126.169C38.952,120.898 35.224,115.186 31,109C7.037,73.911 66.534,21.715 107.5,32Z" style="fill:rgb(191,191,191);"/>
                    <path d="M107.5,32C171.906,48.17 165.554,45.614 176.35,104.38C184.028,146.171 149.721,186 107.5,186C69.594,186 72.998,174.837 42.28,126.169C38.952,120.898 35.224,115.186 31,109C7.037,73.911 66.534,21.715 107.5,32ZM106.908,34.257C122.923,38.277 134.541,41.13 143.125,44.066C151.257,46.848 156.557,49.639 160.237,53.751C163.92,57.866 165.954,63.266 167.773,71.07C169.696,79.321 171.316,90.147 174.006,104.792C181.425,145.172 148.295,183.67 107.5,183.67C94.491,183.67 86.562,182.41 80.405,178.48C76.344,175.887 73.083,172.147 69.576,166.968C63.39,157.83 56.575,144.383 44.306,124.945C40.965,119.652 37.222,113.917 32.98,107.706C23.952,94.486 27.733,78.713 37.711,65.135C53.062,44.247 83.164,28.296 106.908,34.257Z"/>
                </g>
                <g>
                    <g transform="matrix(0.657431,0.225409,-0.225409,0.657431,129.953,20.7484)">
                        <path d="M76,104.888C76,104.888 91.097,99.144 94,83C96.722,67.858 91,57 91,57" style="fill:none;stroke:black;stroke-width:3px;"/>
                    </g>
                    <g transform="matrix(0.684136,0.122403,-0.122403,0.684136,128.786,10.2992)">
                        <ellipse cx="56" cy="97" rx="24" ry="28" style="fill:rgb(108,108,108);"/>
                        <path d="M56,69C69.246,69 80,81.546 80,97C80,112.454 69.246,125 56,125C42.754,125 32,112.454 32,97C32,81.546 42.754,69 56,69ZM56,72C67.727,72 77,83.318 77,97C77,110.682 67.727,122 56,122C44.273,122 35,110.682 35,97C35,83.318 44.273,72 56,72Z"/>
                    </g>
                    <g transform="matrix(0.691566,0.123732,-0.122403,0.684136,128.549,10.2567)">
                        <path d="M56,69C69.246,69 45.871,79.472 45.846,97.082C45.82,115.479 66.373,125.804 53.127,125.804C39.881,125.804 32,112.454 32,97C32,81.546 42.754,69 56,69Z" style="fill:rgb(173,173,173);"/>
                        <path d="M56,69C69.246,69 45.871,79.472 45.846,97.082C45.82,115.479 66.373,125.804 53.127,125.804C39.881,125.804 32,112.454 32,97C32,81.546 42.754,69 56,69ZM55.784,72.003C44.153,72.138 34.968,83.394 34.968,97C34.968,110.648 41.429,122.804 53.127,122.804C53.403,122.804 53.658,122.8 53.895,122.791C53.394,121.997 52.751,121.098 52.036,120.095C48.278,114.823 42.864,107.014 42.878,97.078C42.892,87.468 49.096,79.716 53.671,74.456C54.452,73.558 55.174,72.74 55.784,72.003Z"/>
                    </g>
                </g>
                <g transform="matrix(-0.885535,0.464573,-0.464573,-0.885535,459.728,132.421)">
                    <g transform="matrix(-0.14356,0.680011,-0.680011,-0.14356,273.354,94.0356)">
                        <path d="M76,104.888C76,104.888 91.097,99.144 94,83C96.722,67.858 91,57 91,57" style="fill:none;stroke:black;stroke-width:3px;"/>
                    </g>
                    <g transform="matrix(0.677608,0.154505,-0.154505,0.677608,139.606,10.5616)">
                        <ellipse cx="140.5" cy="130.5" rx="28.5" ry="30.5" style="fill:rgb(108,108,108);"/>
                        <path d="M140.5,100C156.23,100 169,113.667 169,130.5C169,147.333 156.23,161 140.5,161C124.77,161 112,147.333 112,130.5C112,113.667 124.77,100 140.5,100ZM140.5,103C154.632,103 166,115.376 166,130.5C166,145.624 154.632,158 140.5,158C126.368,158 115,145.624 115,130.5C115,115.376 126.368,103 140.5,103Z"/>
                    </g>
                    <g transform="matrix(0.677608,0.154505,-0.154505,0.677608,139.606,10.5616)">
                        <path d="M153.534,103.182C167.44,110.534 138.716,109.69 127.537,120.878C118.966,129.454 117.264,153.036 112.608,136.86C106.4,115.288 129.817,90.644 153.534,103.182Z" style="fill:rgb(191,191,191);"/>
                        <path d="M153.534,103.182C167.44,110.534 138.716,109.69 127.537,120.878C118.966,129.454 117.264,153.036 112.608,136.86C106.4,115.288 129.817,90.644 153.534,103.182ZM115.767,136.95C116.224,135.942 116.723,134.8 117.128,133.77C119.129,128.68 121.724,122.45 125.414,118.757C131.33,112.837 141.82,109.954 149.059,107.724C150.581,107.256 151.938,106.817 153.033,106.366C152.749,106.183 152.441,105.998 152.131,105.834C130.885,94.602 109.93,116.705 115.491,136.03C115.585,136.354 115.676,136.661 115.767,136.95Z"/>
                    </g>
                </g>
                <g>
                    <g transform="matrix(0.230852,0.65554,-0.65554,0.230852,249.454,-0.357552)">
                        <path d="M66.092,114.959C66.092,114.959 86.886,105.083 94,83C98.718,68.356 88.449,58.222 88.449,58.222" style="fill:none;stroke:black;stroke-width:3px;"/>
                    </g>
                    <g transform="matrix(0.64988,0.246336,-0.246336,0.64988,155.362,-3.69589)">
                        <ellipse cx="105" cy="57.5" rx="30" ry="19.5" style="fill:rgb(108,108,108);"/>
                        <path d="M105,38C121.557,38 135,46.738 135,57.5C135,68.262 121.557,77 105,77C88.443,77 75,68.262 75,57.5C75,46.738 88.443,38 105,38ZM105,41C114.106,41 122.213,43.794 127.218,48.232C130.165,50.843 132,54.016 132,57.5C132,60.984 130.165,64.157 127.218,66.768C122.213,71.206 114.106,74 105,74C95.894,74 87.787,71.206 82.782,66.768C79.835,64.157 78,60.984 78,57.5C78,54.016 79.835,50.843 82.782,48.232C87.787,43.794 95.894,41 105,41Z"/>
                    </g>
                    <g transform="matrix(0.64988,0.246336,-0.246336,0.64988,155.362,-3.69589)">
                        <path d="M105,38C121.557,38 132.09,44.992 135.081,55.331C137.886,65.03 125.788,53.16 104.783,52.486C80.627,51.71 75,68.262 75,57.5C75,46.738 88.443,38 105,38Z" style="fill:rgb(191,191,191);"/>
                        <path d="M105,38C121.557,38 132.09,44.992 135.081,55.331C137.886,65.03 125.788,53.16 104.783,52.486C80.627,51.71 75,68.262 75,57.5C75,46.738 88.443,38 105,38ZM132.037,55.637C129.145,46.667 119.568,41 105,41C95.894,41 87.787,43.794 82.782,48.232C80.015,50.684 78.228,53.632 78.021,56.867C79.26,56.126 80.884,55.186 82.476,54.355C87.359,51.808 94.53,49.155 104.879,49.487C115.766,49.837 124.351,53.057 129.844,54.964C130.552,55.209 131.342,55.444 132.037,55.637Z"/>
                    </g>
                </g>
                <g transform="matrix(0.715811,0.380875,-0.267107,0.501997,-210.034,-95.75)">
                    <ellipse cx="565" cy="66" rx="12" ry="11" style="fill:rgb(108,108,108);"/>
                    <path d="M565,55C571.623,55 577,59.929 577,66C577,72.071 571.623,77 565,77C558.377,77 553,72.071 553,66C553,59.929 558.377,55 565,55ZM565,58.667C568.268,58.667 571.192,60.016 572.988,62.262C573.841,63.328 574.429,64.579 574.429,66C574.429,67.421 573.841,68.672 572.988,69.738C571.192,71.984 568.268,73.333 565,73.333C561.732,73.333 558.808,71.984 557.012,69.738C556.159,68.672 555.571,67.421 555.571,66C555.571,64.579 556.159,63.328 557.012,62.262C558.808,60.016 561.732,58.667 565,58.667Z"/>
                </g>
            </g>
        </g>
    </g>
</svg>
