<?xml version="1.0" encoding="UTF-8" standalone="no"?>
<!DOCTYPE svg PUBLIC "-//W3C//DTD SVG 1.1//EN" "http://www.w3.org/Graphics/SVG/1.1/DTD/svg11.dtd">
<svg width="100%" height="100%" viewBox="0 0 200 200" version="1.1" xmlns="http://www.w3.org/2000/svg" xmlns:xlink="http://www.w3.org/1999/xlink" xml:space="preserve" xmlns:serif="http://www.serif.com/" style="fill-rule:evenodd;clip-rule:evenodd;stroke-linecap:round;stroke-linejoin:round;stroke-miterlimit:1.5;">
    <g transform="matrix(1,0,0,1,-712,-247)">
        <g id="asteroid4" transform="matrix(1.43885,0,0,1.43885,543.655,203.835)">
            <rect x="117" y="30" width="139" height="139" style="fill:none;"/>
            <clipPath id="_clip1">
                <rect x="117" y="30" width="139" height="139"/>
            </clipPath>
            <g clip-path="url(#_clip1)">
                <g transform="matrix(0.695,0,0,0.695,-377.84,30)">
                    <circle cx="812" cy="100" r="100" style="fill:rgb(191,191,191);"/>
                    <path d="M812,0C867.192,0 912,44.808 912,100C912,155.192 867.192,200 812,200C756.808,200 712,155.192 712,100C712,44.808 756.808,0 812,0ZM812,3C865.536,3 909,46.464 909,100C909,153.536 865.536,197 812,197C758.464,197 715,153.536 715,100C715,46.464 758.464,3 812,3Z"/>
                </g>
                <g transform="matrix(0.842347,0.538935,-0.538935,0.842347,69.1969,-95.7847)">
                    <g transform="matrix(0.657431,0.225409,-0.225409,0.657431,129.953,20.7484)">
                        <path d="M76,104.888C76,104.888 91.097,99.144 94,83C96.722,67.858 91,57 91,57" style="fill:none;stroke:black;stroke-width:3px;"/>
                    </g>
                    <g transform="matrix(0.684136,0.122403,-0.122403,0.684136,128.786,10.2992)">
                        <ellipse cx="56" cy="97" rx="24" ry="28" style="fill:rgb(108,108,108);"/>
                        <path d="M56,69C69.246,69 80,81.546 80,97C80,112.454 69.246,125 56,125C42.754,125 32,112.454 32,97C32,81.546 42.754,69 56,69ZM56,72C67.727,72 77,83.318 77,97C77,110.682 67.727,122 56,122C44.273,122 35,110.682 35,97C35,83.318 44.273,72 56,72Z"/>
                    </g>
                    <g transform="matrix(0.691566,0.123732,-0.122403,0.684136,128.549,10.2567)">
                        <path d="M56,69C69.246,69 45.871,79.472 45.846,97.082C45.82,115.479 66.373,125.804 53.127,125.804C39.881,125.804 32,112.454 32,97C32,81.546 42.754,69 56,69Z" style="fill:rgb(173,173,173);"/>
                        <path d="M56,69C69.246,69 45.871,79.472 45.846,97.082C45.82,115.479 66.373,125.804 53.127,125.804C39.881,125.804 32,112.454 32,97C32,81.546 42.754,69 56,69ZM55.784,72.003C44.153,72.138 34.968,83.394 34.968,97C34.968,110.648 41.429,122.804 53.127,122.804C53.403,122.804 53.658,122.8 53.895,122.791C53.394,121.997 52.751,121.098 52.036,120.095C48.278,114.823 42.864,107.014 42.878,97.078C42.892,87.468 49.096,79.716 53.671,74.456C54.452,73.558 55.174,72.74 55.784,72.003Z"/>
                    </g>
                </g>
                <g transform="matrix(1,0,0,1,-4.61853,4.17)">
                    <g transform="matrix(-0.14356,0.680011,-0.680011,-0.14356,273.354,94.0356)">
                        <path d="M76,104.888C76,104.888 91.097,99.144 94,83C96.722,67.858 91,57 91,57" style="fill:none;stroke:black;stroke-width:3px;"/>
                    </g>
                    <g transform="matrix(0.677608,0.154505,-0.154505,0.677608,139.606,10.5616)">
                        <ellipse cx="140.5" cy="130.5" rx="28.5" ry="30.5" style="fill:rgb(108,108,108);"/>
                        <path d="M140.5,100C156.23,100 169,113.667 169,130.5C169,147.333 156.23,161 140.5,161C124.77,161 112,147.333 112,130.5C112,113.667 124.77,100 140.5,100ZM140.5,103C154.632,103 166,115.376 166,130.5C166,145.624 154.632,158 140.5,158C126.368,158 115,145.624 115,130.5C115,115.376 126.368,103 140.5,103Z"/>
                    </g>
                    <g transform="matrix(0.677608,0.154505,-0.154505,0.677608,139.606,10.5616)">
                        <path d="M153.534,103.182C167.44,110.534 138.716,109.69 127.537,120.878C118.966,129.454 117.264,153.036 112.608,136.86C106.4,115.288 129.817,90.644 153.534,103.182Z" style="fill:rgb(191,191,191);"/>
                        <path d="M153.534,103.182C167.44,110.534 138.716,109.69 127.537,120.878C118.966,129.454 117.264,153.036 112.608,136.86C106.4,115.288 129.817,90.644 153.534,103.182ZM153.033,106.366C152.749,106.183 152.441,105.998 152.131,105.834C130.885,94.602 109.93,116.705 115.491,136.03C115.585,136.354 115.676,136.661 115.767,136.95C116.224,135.942 116.723,134.8 117.128,133.77C119.129,128.68 121.724,122.45 125.414,118.757C131.33,112.837 141.82,109.954 149.059,107.724C150.581,107.256 151.938,106.817 153.033,106.366Z"/>
                    </g>
                </g>
                <g transform="matrix(-0.799689,-0.600415,0.600415,-0.799689,279.317,304.488)">
                    <g transform="matrix(0.230852,0.65554,-0.65554,0.230852,249.454,-0.357552)">
                        <path d="M66.092,114.959C66.092,114.959 86.886,105.083 94,83C98.718,68.356 88.449,58.222 88.449,58.222" style="fill:none;stroke:black;stroke-width:3px;"/>
                    </g>
                    <g transform="matrix(0.64988,0.246336,-0.246336,0.64988,155.362,-3.69589)">
                        <ellipse cx="105" cy="57.5" rx="30" ry="19.5" style="fill:rgb(108,108,108);"/>
                        <path d="M105,38C121.557,38 135,46.738 135,57.5C135,68.262 121.557,77 105,77C88.443,77 75,68.262 75,57.5C75,46.738 88.443,38 105,38ZM105,41C114.106,41 122.213,43.794 127.218,48.232C130.165,50.843 132,54.016 132,57.5C132,60.984 130.165,64.157 127.218,66.768C122.213,71.206 114.106,74 105,74C95.894,74 87.787,71.206 82.782,66.768C79.835,64.157 78,60.984 78,57.5C78,54.016 79.835,50.843 82.782,48.232C87.787,43.794 95.894,41 105,41Z"/>
                    </g>
                    <g transform="matrix(0.64988,0.246336,-0.246336,0.64988,155.362,-3.69589)">
                        <path d="M105,38C121.557,38 132.09,44.992 135.081,55.331C137.886,65.03 125.788,53.16 104.783,52.486C80.627,51.71 75,68.262 75,57.5C75,46.738 88.443,38 105,38Z" style="fill:rgb(191,191,191);"/>
                        <path d="M105,38C121.557,38 132.09,44.992 135.081,55.331C137.886,65.03 125.788,53.16 104.783,52.486C80.627,51.71 75,68.262 75,57.5C75,46.738 88.443,38 105,38ZM132.037,55.637C129.145,46.667 119.568,41 105,41C95.894,41 87.787,43.794 82.782,48.232C80.015,50.684 78.228,53.632 78.021,56.867C79.26,56.126 80.884,55.186 82.476,54.355C87.359,51.808 94.53,49.155 104.879,49.487C115.766,49.837 124.351,53.057 129.844,54.964C130.552,55.209 131.342,55.444 132.037,55.637Z"/>
                    </g>
                </g>
                <g transform="matrix(0.779677,0.626181,-0.362885,0.451839,88.8646,-133.287)">
                    <g transform="matrix(-0.14356,0.680011,-0.680011,-0.14356,273.354,94.0356)">
                        <path d="M76,104.888C76,104.888 91.097,99.144 94,83C96.722,67.858 91,57 91,57" style="fill:none;stroke:black;stroke-width:3.35px;"/>
                    </g>
                    <g transform="matrix(0.677608,0.154505,-0.154505,0.677608,139.606,10.5616)">
                        <ellipse cx="140.5" cy="130.5" rx="28.5" ry="30.5" style="fill:rgb(108,108,108);"/>
                        <path d="M140.5,100C156.23,100 169,113.667 169,130.5C169,147.333 156.23,161 140.5,161C124.77,161 112,147.333 112,130.5C112,113.667 124.77,100 140.5,100ZM141.258,105.091C148.339,105.091 154.756,108.015 159.401,112.985C163.318,117.178 165.857,122.882 165.857,129.273C165.857,134.961 164.025,140.109 161.103,144.373C156.289,151.4 148.5,155.909 139.742,155.909C132.661,155.909 126.244,152.985 121.599,148.015C117.682,143.822 115.143,138.118 115.143,131.727C115.143,126.039 116.975,120.891 119.897,116.627C124.711,109.6 132.5,105.091 141.258,105.091Z"/>
                    </g>
                    <g transform="matrix(0.677608,0.154505,-0.154505,0.677608,139.606,10.5616)">
                        <path d="M153.534,103.182C167.44,110.534 138.716,109.69 127.537,120.878C118.966,129.454 117.264,153.036 112.608,136.86C106.4,115.288 129.817,90.644 153.534,103.182Z" style="fill:rgb(191,191,191);"/>
                        <path d="M153.534,103.182C167.44,110.534 138.716,109.69 127.537,120.878C118.966,129.454 117.264,153.036 112.608,136.86C106.4,115.288 129.817,90.644 153.534,103.182ZM147.919,105.829C136.625,102.58 126.007,107.816 119.849,116.278C117.623,119.337 115.986,122.805 115.209,126.49C114.573,129.506 114.525,132.634 115.407,135.704C115.951,134.522 116.52,133.052 117.15,131.452C119.164,126.329 121.738,120.083 125.453,116.365C129.568,112.248 135.918,109.61 141.839,107.68C143.979,106.983 146.058,106.386 147.919,105.829Z"/>
                    </g>
                </g>
                <g transform="matrix(0.224174,0.657853,-0.502661,0.171289,148.156,-300.263)">
                    <ellipse cx="565" cy="66" rx="12" ry="11" style="fill:rgb(108,108,108);"/>
                    <path d="M565,55C571.623,55 577,59.929 577,66C577,72.071 571.623,77 565,77C558.377,77 553,72.071 553,66C553,59.929 558.377,55 565,55ZM565,58.926C567.635,58.926 570.034,59.855 571.763,61.439C573.065,62.633 574,64.179 574,66C574,67.821 573.065,69.367 571.763,70.561C570.034,72.145 567.635,73.074 565,73.074C562.365,73.074 559.966,72.145 558.237,70.561C556.935,69.367 556,67.821 556,66C556,64.179 556.935,62.633 558.237,61.439C559.966,59.855 562.365,58.926 565,58.926Z"/>
                </g>
                <g transform="matrix(0.13884,0.407434,-0.502661,0.171289,170.037,-163.43)">
                    <ellipse cx="565" cy="66" rx="12" ry="11" style="fill:rgb(108,108,108);"/>
                    <path d="M565,55C571.623,55 577,59.929 577,66C577,72.071 571.623,77 565,77C558.377,77 553,72.071 553,66C553,59.929 558.377,55 565,55ZM565,58.926C569.126,58.926 572.156,62.218 572.156,66C572.156,69.782 569.126,73.074 565,73.074C560.874,73.074 557.844,69.782 557.844,66C557.844,62.218 560.874,58.926 565,58.926Z"/>
                </g>
            </g>
        </g>
    </g>
</svg>
