<?xml version="1.0" encoding="UTF-8" standalone="no"?>
<!DOCTYPE svg PUBLIC "-//W3C//DTD SVG 1.1//EN" "http://www.w3.org/Graphics/SVG/1.1/DTD/svg11.dtd">
<svg width="100%" height="100%" viewBox="0 0 200 200" version="1.1" xmlns="http://www.w3.org/2000/svg" xmlns:xlink="http://www.w3.org/1999/xlink" xml:space="preserve" xmlns:serif="http://www.serif.com/" style="fill-rule:evenodd;clip-rule:evenodd;stroke-linecap:round;stroke-linejoin:round;stroke-miterlimit:1.5;">
    <g transform="matrix(1,0,0,1,-472,-247)">
        <g id="asteroid3" transform="matrix(1.43885,0,0,1.43885,303.655,203.835)">
            <rect x="117" y="30" width="139" height="139" style="fill:none;"/>
            <clipPath id="_clip1">
                <rect x="117" y="30" width="139" height="139"/>
            </clipPath>
            <g clip-path="url(#_clip1)">
                <g transform="matrix(0.695,0,0,0.695,-44.24,30)">
                    <path d="M354,0C387.4,0 394.997,16.41 413.163,41.6C425.015,58.035 424.248,83.626 420,105C414,135.192 387.192,200 332,200C276.808,200 246,179.192 246,124C246,108.356 283.146,88.878 296.801,75.189C324.362,47.561 339.251,0 354,0Z" style="fill:rgb(191,191,191);"/>
                    <path d="M354,0C387.4,0 394.997,16.41 413.163,41.6C425.015,58.035 424.248,83.626 420,105C414,135.192 387.192,200 332,200C276.808,200 246,179.192 246,124C246,108.356 283.146,88.878 296.801,75.189C324.362,47.561 339.251,0 354,0ZM354,3C386.15,3 393.244,19.107 410.729,43.355C422.139,59.177 421.147,83.839 417.058,104.415C414.117,119.212 406.077,142.491 392.01,162.071C378.203,181.291 358.55,197 332,197C305.252,197 284.37,192.116 270.218,180.387C256.208,168.776 249,150.477 249,124C249,122 249.831,119.945 251.152,117.82C253.497,114.048 257.362,110.175 261.903,106.28C273.971,95.926 290.692,85.562 298.925,77.308C318.341,57.844 331.551,28.581 342.795,12.757C345.02,9.625 347.147,7.05 349.249,5.273C350.875,3.898 352.409,3 354,3Z"/>
                </g>
                <g transform="matrix(0.695,0,0,0.695,-210.345,36.3866)">
                    <ellipse cx="565" cy="66" rx="12" ry="11" style="fill:rgb(108,108,108);"/>
                    <path d="M565,55C571.623,55 577,59.929 577,66C577,72.071 571.623,77 565,77C558.377,77 553,72.071 553,66C553,59.929 558.377,55 565,55ZM565,58C569.899,58 574,61.509 574,66C574,70.491 569.899,74 565,74C560.101,74 556,70.491 556,66C556,61.509 560.101,58 565,58Z"/>
                </g>
                <g transform="matrix(0.867836,-0.32189,0.2373,0.639775,6.0412,106.584)">
                    <g transform="matrix(-0.14356,0.680011,-0.680011,-0.14356,273.354,94.0356)">
                        <path d="M76,104.888C76,104.888 91.097,99.144 94,83C96.722,67.858 91,57 91,57" style="fill:none;stroke:black;stroke-width:3.49px;"/>
                    </g>
                    <g transform="matrix(0.677608,0.154505,-0.154505,0.677608,139.606,10.5616)">
                        <ellipse cx="140.5" cy="130.5" rx="28.5" ry="30.5" style="fill:rgb(108,108,108);"/>
                        <path d="M140.5,100C156.23,100 169,113.667 169,130.5C169,147.333 156.23,161 140.5,161C124.77,161 112,147.333 112,130.5C112,113.667 124.77,100 140.5,100ZM140.94,104.347C154.423,104.347 165.692,115.493 165.692,129.922C165.692,144.904 154.06,156.653 140.06,156.653C126.577,156.653 115.308,145.507 115.308,131.078C115.308,116.096 126.94,104.347 140.94,104.347Z"/>
                    </g>
                    <g transform="matrix(0.677608,0.154505,-0.154505,0.677608,139.606,10.5616)">
                        <path d="M153.534,103.182C167.44,110.534 138.716,109.69 127.537,120.878C118.966,129.454 117.264,153.036 112.608,136.86C106.4,115.288 129.817,90.644 153.534,103.182Z" style="fill:rgb(191,191,191);"/>
                        <path d="M153.534,103.182C167.44,110.534 138.716,109.69 127.537,120.878C118.966,129.454 117.264,153.036 112.608,136.86C106.4,115.288 129.817,90.644 153.534,103.182ZM150.032,105.962C138.058,101.123 126.516,106.381 120.033,115.29C115.789,121.123 113.639,128.539 115.651,135.695C116.057,134.733 116.482,133.643 116.937,132.484C118.966,127.326 121.579,121.036 125.32,117.292C131.189,111.42 141.612,108.563 148.793,106.351L150.032,105.962Z"/>
                    </g>
                </g>
                <g transform="matrix(-0.799689,-0.600415,0.600415,-0.799689,279.317,304.488)">
                    <g transform="matrix(0.230852,0.65554,-0.65554,0.230852,249.454,-0.357552)">
                        <path d="M66.092,114.959C66.092,114.959 86.886,105.083 94,83C98.718,68.356 88.449,58.222 88.449,58.222" style="fill:none;stroke:black;stroke-width:3px;"/>
                    </g>
                    <g transform="matrix(0.64988,0.246336,-0.246336,0.64988,155.362,-3.69589)">
                        <ellipse cx="105" cy="57.5" rx="30" ry="19.5" style="fill:rgb(108,108,108);"/>
                        <path d="M105,38C121.557,38 135,46.738 135,57.5C135,68.262 121.557,77 105,77C88.443,77 75,68.262 75,57.5C75,46.738 88.443,38 105,38ZM105,41C114.106,41 122.213,43.794 127.218,48.232C130.165,50.843 132,54.016 132,57.5C132,60.984 130.165,64.157 127.218,66.768C122.213,71.206 114.106,74 105,74C95.894,74 87.787,71.206 82.782,66.768C79.835,64.157 78,60.984 78,57.5C78,54.016 79.835,50.843 82.782,48.232C87.787,43.794 95.894,41 105,41Z"/>
                    </g>
                    <g transform="matrix(0.64988,0.246336,-0.246336,0.64988,155.362,-3.69589)">
                        <path d="M105,38C121.557,38 132.09,44.992 135.081,55.331C137.886,65.03 125.788,53.16 104.783,52.486C80.627,51.71 75,68.262 75,57.5C75,46.738 88.443,38 105,38Z" style="fill:rgb(191,191,191);"/>
                        <path d="M105,38C121.557,38 132.09,44.992 135.081,55.331C137.886,65.03 125.788,53.16 104.783,52.486C80.627,51.71 75,68.262 75,57.5C75,46.738 88.443,38 105,38ZM132.037,55.637C129.145,46.667 119.568,41 105,41C95.894,41 87.787,43.794 82.782,48.232C80.015,50.684 78.228,53.632 78.021,56.867C79.26,56.126 80.884,55.186 82.476,54.355C87.359,51.808 94.53,49.155 104.879,49.487C115.766,49.837 124.351,53.057 129.844,54.964C130.552,55.209 131.342,55.444 132.037,55.637Z"/>
                    </g>
                </g>
                <g transform="matrix(0.779677,0.626181,-0.362885,0.451839,92.5264,-143.278)">
                    <g transform="matrix(-0.14356,0.680011,-0.680011,-0.14356,273.354,94.0356)">
                        <path d="M76,104.888C76,104.888 91.097,99.144 94,83C96.722,67.858 91,57 91,57" style="fill:none;stroke:black;stroke-width:3.35px;"/>
                    </g>
                    <g transform="matrix(0.677608,0.154505,-0.154505,0.677608,139.606,10.5616)">
                        <ellipse cx="140.5" cy="130.5" rx="28.5" ry="30.5" style="fill:rgb(108,108,108);"/>
                        <path d="M140.5,100C156.23,100 169,113.667 169,130.5C169,147.333 156.23,161 140.5,161C124.77,161 112,147.333 112,130.5C112,113.667 124.77,100 140.5,100ZM141.258,105.091C148.339,105.091 154.756,108.015 159.401,112.985C163.318,117.178 165.857,122.882 165.857,129.273C165.857,134.961 164.025,140.109 161.103,144.373C156.289,151.4 148.5,155.909 139.742,155.909C132.661,155.909 126.244,152.985 121.599,148.015C117.682,143.822 115.143,138.118 115.143,131.727C115.143,126.039 116.975,120.891 119.897,116.627C124.711,109.6 132.5,105.091 141.258,105.091Z"/>
                    </g>
                    <g transform="matrix(0.677608,0.154505,-0.154505,0.677608,139.606,10.5616)">
                        <path d="M153.534,103.182C167.44,110.534 138.716,109.69 127.537,120.878C118.966,129.454 117.264,153.036 112.608,136.86C106.4,115.288 129.817,90.644 153.534,103.182Z" style="fill:rgb(191,191,191);"/>
                        <path d="M153.534,103.182C167.44,110.534 138.716,109.69 127.537,120.878C118.966,129.454 117.264,153.036 112.608,136.86C106.4,115.288 129.817,90.644 153.534,103.182ZM147.919,105.829C136.625,102.58 126.007,107.816 119.849,116.278C117.623,119.337 115.986,122.805 115.209,126.49C114.573,129.506 114.525,132.634 115.407,135.704C115.951,134.522 116.52,133.052 117.15,131.452C119.164,126.329 121.738,120.083 125.453,116.365C129.568,112.248 135.918,109.61 141.839,107.68C143.979,106.983 146.058,106.386 147.919,105.829Z"/>
                    </g>
                </g>
            </g>
        </g>
    </g>
</svg>
