<?xml version="1.0" encoding="UTF-8" standalone="no"?>
<!DOCTYPE svg PUBLIC "-//W3C//DTD SVG 1.1//EN" "http://www.w3.org/Graphics/SVG/1.1/DTD/svg11.dtd">
<svg width="100%" height="100%" viewBox="0 0 200 200" version="1.1" xmlns="http://www.w3.org/2000/svg" xmlns:xlink="http://www.w3.org/1999/xlink" xml:space="preserve" xmlns:serif="http://www.serif.com/" style="fill-rule:evenodd;clip-rule:evenodd;stroke-linecap:round;stroke-linejoin:round;stroke-miterlimit:1.5;">
    <g transform="matrix(1,0,0,1,-954,-247)">
        <g id="asteroid5" transform="matrix(1.43885,0,0,1.43885,785.655,203.835)">
            <rect x="117" y="30" width="139" height="139" style="fill:none;"/>
            <clipPath id="_clip1">
                <rect x="117" y="30" width="139" height="139"/>
            </clipPath>
            <g clip-path="url(#_clip1)">
                <g transform="matrix(0.695,0,0,0.695,-377.84,30)">
                    <path d="M812,0C867.192,0 912,-1.192 912,54C912,90.031 918.078,128.636 889.462,146.239C874.245,155.599 874.917,181 855.757,181C827.73,181 797.654,160.377 773.46,169.896C766.323,172.704 762.865,147.314 754.926,137.892C747.095,128.598 728.165,123.345 730.84,118.915C738.459,106.293 712,111.462 712,100C712,79.176 725.379,48.83 736.288,32.811C754.291,6.375 777.632,0 812,0Z" style="fill:rgb(191,191,191);"/>
                    <path d="M812,0C867.192,0 912,-1.192 912,54C912,90.031 918.078,128.636 889.462,146.239C874.245,155.599 874.917,181 855.757,181C827.73,181 797.654,160.377 773.46,169.896C766.323,172.704 762.865,147.314 754.926,137.892C747.095,128.598 728.165,123.345 730.84,118.915C738.459,106.293 712,111.462 712,100C712,79.176 725.379,48.83 736.288,32.811C754.291,6.375 777.632,0 812,0ZM772.405,167.087C785.07,162.122 799.282,164.84 813.986,168.991C827.768,172.882 842.007,178 855.757,178C864.073,178 867.874,172.214 871.458,165.686C875.83,157.724 879.835,148.639 887.89,143.683C901.374,135.389 906.546,122.069 908.485,106.656C910.528,90.416 909,71.888 909,54C909,38.382 905.328,27.51 898.597,19.999C891.867,12.488 882.163,8.392 870.456,6.055C854.07,2.784 833.857,3 812,3C778.797,3 756.16,8.959 738.767,34.5C728.128,50.123 715,79.69 715,100C715,102.156 716.755,103.146 718.716,104.008C721.808,105.367 725.641,106.156 728.593,107.312C732.079,108.676 734.449,110.697 735.056,113.431C735.422,115.076 735.215,117.143 733.841,119.705C734.016,119.882 734.234,120.091 734.433,120.251C735.232,120.889 736.266,121.552 737.446,122.257C743.313,125.762 752.321,130.144 757.22,135.959C762.136,141.792 765.487,153.511 768.892,161.364C769.675,163.171 770.454,164.747 771.286,165.913C771.561,166.298 771.834,166.63 772.123,166.885C772.201,166.954 772.332,167.041 772.405,167.087Z"/>
                </g>
                <g transform="matrix(0.842347,0.538935,-0.538935,0.842347,69.1969,-95.7847)">
                    <g transform="matrix(0.657431,0.225409,-0.225409,0.657431,129.953,20.7484)">
                        <path d="M76,104.888C76,104.888 91.097,99.144 94,83C96.722,67.858 91,57 91,57" style="fill:none;stroke:black;stroke-width:3px;"/>
                    </g>
                    <g transform="matrix(0.684136,0.122403,-0.122403,0.684136,128.786,10.2992)">
                        <ellipse cx="56" cy="97" rx="24" ry="28" style="fill:rgb(108,108,108);"/>
                        <path d="M56,69C69.246,69 80,81.546 80,97C80,112.454 69.246,125 56,125C42.754,125 32,112.454 32,97C32,81.546 42.754,69 56,69ZM56,72C67.727,72 77,83.318 77,97C77,110.682 67.727,122 56,122C44.273,122 35,110.682 35,97C35,83.318 44.273,72 56,72Z"/>
                    </g>
                    <g transform="matrix(0.691566,0.123732,-0.122403,0.684136,128.549,10.2567)">
                        <path d="M56,69C69.246,69 45.871,79.472 45.846,97.082C45.82,115.479 66.373,125.804 53.127,125.804C39.881,125.804 32,112.454 32,97C32,81.546 42.754,69 56,69Z" style="fill:rgb(173,173,173);"/>
                        <path d="M56,69C69.246,69 45.871,79.472 45.846,97.082C45.82,115.479 66.373,125.804 53.127,125.804C39.881,125.804 32,112.454 32,97C32,81.546 42.754,69 56,69ZM55.784,72.003C44.153,72.138 34.968,83.394 34.968,97C34.968,110.648 41.429,122.804 53.127,122.804C53.403,122.804 53.658,122.8 53.895,122.791C53.394,121.997 52.751,121.098 52.036,120.095C48.278,114.823 42.864,107.014 42.878,97.078C42.892,87.468 49.096,79.716 53.671,74.456C54.452,73.558 55.174,72.74 55.784,72.003Z"/>
                    </g>
                </g>
                <g transform="matrix(1,0,0,1,-4.61853,4.17)">
                    <g transform="matrix(-0.14356,0.680011,-0.680011,-0.14356,273.354,94.0356)">
                        <path d="M76,104.888C76,104.888 91.097,99.144 94,83C96.722,67.858 91,57 91,57" style="fill:none;stroke:black;stroke-width:3px;"/>
                    </g>
                    <g transform="matrix(0.677608,0.154505,-0.154505,0.677608,139.606,10.5616)">
                        <ellipse cx="140.5" cy="130.5" rx="28.5" ry="30.5" style="fill:rgb(108,108,108);"/>
                        <path d="M140.5,100C156.23,100 169,113.667 169,130.5C169,147.333 156.23,161 140.5,161C124.77,161 112,147.333 112,130.5C112,113.667 124.77,100 140.5,100ZM140.5,103C154.632,103 166,115.376 166,130.5C166,145.624 154.632,158 140.5,158C126.368,158 115,145.624 115,130.5C115,115.376 126.368,103 140.5,103Z"/>
                    </g>
                    <g transform="matrix(0.677608,0.154505,-0.154505,0.677608,139.606,10.5616)">
                        <path d="M153.534,103.182C167.44,110.534 138.716,109.69 127.537,120.878C118.966,129.454 117.264,153.036 112.608,136.86C106.4,115.288 129.817,90.644 153.534,103.182Z" style="fill:rgb(191,191,191);"/>
                        <path d="M153.534,103.182C167.44,110.534 138.716,109.69 127.537,120.878C118.966,129.454 117.264,153.036 112.608,136.86C106.4,115.288 129.817,90.644 153.534,103.182ZM153.033,106.366C152.749,106.183 152.441,105.998 152.131,105.834C130.885,94.602 109.93,116.705 115.491,136.03C115.585,136.354 115.676,136.661 115.767,136.95C116.224,135.942 116.723,134.8 117.128,133.77C119.129,128.68 121.724,122.45 125.414,118.757C131.33,112.837 141.82,109.954 149.059,107.724C150.581,107.256 151.938,106.817 153.033,106.366Z"/>
                    </g>
                </g>
                <g transform="matrix(0.462495,1.35723,-0.952194,0.324475,36.9181,-730.191)">
                    <ellipse cx="565" cy="66" rx="12" ry="11" style="fill:rgb(108,108,108);"/>
                    <path d="M565,55C571.623,55 577,59.929 577,66C577,72.071 571.623,77 565,77C558.377,77 553,72.071 553,66C553,59.929 558.377,55 565,55ZM565,57.073C568.575,57.073 571.76,58.607 573.725,61.064C574.839,62.457 575.546,64.141 575.546,66C575.546,67.859 574.839,69.543 573.725,70.936C571.76,73.393 568.575,74.927 565,74.927C561.425,74.927 558.24,73.393 556.275,70.936C555.161,69.543 554.454,67.859 554.454,66C554.454,64.141 555.161,62.457 556.275,61.064C558.24,58.607 561.425,57.073 565,57.073Z"/>
                </g>
                <g transform="matrix(0.13884,0.407434,-0.502661,0.171289,170.037,-163.43)">
                    <ellipse cx="565" cy="66" rx="12" ry="11" style="fill:rgb(108,108,108);"/>
                    <path d="M565,55C571.623,55 577,59.929 577,66C577,72.071 571.623,77 565,77C558.377,77 553,72.071 553,66C553,59.929 558.377,55 565,55ZM565,58.926C569.126,58.926 572.156,62.218 572.156,66C572.156,69.782 569.126,73.074 565,73.074C560.874,73.074 557.844,69.782 557.844,66C557.844,62.218 560.874,58.926 565,58.926Z"/>
                </g>
                <g transform="matrix(-0.913202,-0.407506,0.407506,-0.913202,314.957,266.706)">
                    <g transform="matrix(0.230852,0.65554,-0.65554,0.230852,249.454,-0.357552)">
                        <path d="M63.135,113.84C63.135,113.84 86.886,105.083 94,83C98.718,68.356 88.449,58.222 88.449,58.222" style="fill:none;stroke:black;stroke-width:3px;"/>
                    </g>
                    <g transform="matrix(0.64988,0.246336,-0.246336,0.64988,155.362,-3.69589)">
                        <path d="M104.12,56.418C120.677,56.418 138.596,46.475 138.596,57.238C138.596,68 121.557,77 105,77C88.443,77 71.669,60.719 71.669,49.957C71.669,39.194 87.562,56.418 104.12,56.418Z" style="fill:rgb(108,108,108);"/>
                        <path d="M104.12,56.418C120.677,56.418 138.596,46.475 138.596,57.238C138.596,68 121.557,77 105,77C88.443,77 71.669,60.719 71.669,49.957C71.669,39.194 87.562,56.418 104.12,56.418ZM74.696,49.525C74.679,49.67 74.669,49.821 74.669,49.957C74.669,53.672 77.152,58.065 80.845,62.1C86.737,68.536 95.883,74 105,74C114.251,74 123.678,71.03 129.728,66.451C133.211,63.815 135.596,60.7 135.596,57.238C135.596,56.577 135.572,56.069 135.269,55.747C134.963,55.422 134.474,55.36 133.916,55.292C132.348,55.101 130.36,55.351 128.082,55.747C121.39,56.913 112.578,59.418 104.12,59.418C95.367,59.418 86.754,54.976 80.365,51.846C78.67,51.015 77.151,50.291 75.852,49.83C75.491,49.701 75.044,49.596 74.696,49.525Z"/>
                    </g>
                </g>
            </g>
        </g>
    </g>
</svg>
