<?xml version="1.0" encoding="UTF-8" standalone="no"?>
<!DOCTYPE svg PUBLIC "-//W3C//DTD SVG 1.1//EN" "http://www.w3.org/Graphics/SVG/1.1/DTD/svg11.dtd">
<svg width="100%" height="100%" viewBox="0 0 200 200" version="1.1" xmlns="http://www.w3.org/2000/svg" xmlns:xlink="http://www.w3.org/1999/xlink" xml:space="preserve" xmlns:serif="http://www.serif.com/" style="fill-rule:evenodd;clip-rule:evenodd;stroke-linejoin:round;stroke-miterlimit:2;">
    <g transform="matrix(1,0,0,1,-233,0)">
        <g id="spaceship" transform="matrix(1.43885,0,0,1.43885,64.6547,-43.1655)">
            <rect x="117" y="30" width="139" height="139" style="fill:none;"/>
            <clipPath id="_clip1">
                <rect x="117" y="30" width="139" height="139"/>
            </clipPath>
            <g clip-path="url(#_clip1)">
                <g transform="matrix(1.44562,0,2.21706e-16,1.04811,49.917,39.8536)">
                    <path d="M94,41L126,93.5C126,93.5 112.204,94.511 94.543,94.511C76.882,94.511 62,93.5 62,93.5L94,41Z" style="fill:rgb(208,11,0);"/>
                    <path d="M94,41L126,93.5C126,93.5 112.204,94.511 94.543,94.511C76.882,94.511 62,93.5 62,93.5L94,41ZM123.018,91.699L94,44.091L64.988,91.688C70.158,91.978 81.603,92.521 94.543,92.521C107.325,92.521 118.078,91.991 123.018,91.699Z"/>
                </g>
                <g transform="matrix(-1.14423,-2.51939e-16,-3.0456e-16,-1.27361,294.058,206.472)">
                    <path d="M94,41C94,41 126,75.011 126,93.5C126,111.989 111.661,108 94,108C76.339,108 62,114.172 62,93.5C62,75.011 94,41 94,41Z" style="fill:white;"/>
                    <path d="M94,41C94,41 126,75.011 126,93.5C126,111.989 111.661,108 94,108C76.339,108 62,114.172 62,93.5C62,75.011 94,41 94,41ZM94,43.573C89.982,48.01 78.169,61.491 70.53,74.758C66.651,81.497 63.822,88.163 63.822,93.5C63.822,99.128 64.851,102.596 66.924,104.648C68.887,106.592 71.744,107.124 75.159,107.213C80.441,107.351 86.955,106.363 94,106.363C101.005,106.363 107.483,107.004 112.734,106.59C116.201,106.317 119.096,105.607 121.089,103.673C123.141,101.682 124.178,98.485 124.178,93.5C124.178,88.163 121.349,81.497 117.47,74.758C109.831,61.491 98.018,48.01 94,43.573Z"/>
                </g>
                <g transform="matrix(0.695,0,0,0.695,-44.935,30)">
                    <path d="M282,68.414C290.997,40.254 333,-0 333,-0C333,-0 375.003,40.254 384,68.414C370.414,78.333 352.553,84.358 333,84.358C313.447,84.358 295.586,78.333 282,68.414Z" style="fill:rgb(208,11,0);"/>
                    <path d="M282,68.414C290.997,40.254 333,-0 333,-0C333,-0 375.003,40.254 384,68.414C370.414,78.333 352.553,84.358 333,84.358C313.447,84.358 295.586,78.333 282,68.414ZM333,4.195C324.746,12.366 294.305,43.543 285.569,67.263C298.441,76.076 314.979,81.358 333,81.358C351.021,81.358 367.559,76.076 380.431,67.263C371.693,43.541 341.254,12.365 333,4.195Z"/>
                </g>
                <g transform="matrix(0.583783,0,0,0.583783,-13.5902,74.7932)">
                    <circle cx="342.747" cy="50.747" r="18.747"/>
                    <path d="M342.747,28.428C330.429,28.428 320.428,38.429 320.428,50.747C320.428,63.065 330.429,73.066 342.747,73.066C355.065,73.066 365.066,63.065 365.066,50.747C365.066,38.429 355.065,28.428 342.747,28.428ZM342.747,32C353.094,32 361.494,40.4 361.494,50.747C361.494,61.094 353.094,69.494 342.747,69.494C332.4,69.494 324,61.094 324,50.747C324,40.4 332.4,32 342.747,32Z"/>
                </g>
                <g transform="matrix(0.583783,0,0,0.583783,-7.8999,79.7953)">
                    <path d="M339.08,24.441C343.016,25.791 346.362,28.416 348.625,31.822C345.888,35.347 342.315,40.127 340.29,43.555C337.956,47.505 334.244,55.105 331.503,60.867C327.759,60.571 324.322,59.172 321.519,56.996C322.457,50.373 326.144,42.628 328.097,38.753C329.973,35.031 334.266,28.185 339.08,24.441Z" style="fill:white;"/>
                </g>
                <g transform="matrix(0.695,0,0,0.695,-48.7575,32.085)">
                    <path d="M338.5,129C353.678,129 366.998,142.249 366,158.5C365,174.781 338.5,194 338.5,194C338.5,194 312,174.781 311,158.5C310.002,142.249 323.322,129 338.5,129Z" style="fill:rgb(255,50,0);"/>
                    <path d="M338.5,126C321.677,126 306.899,140.672 308.006,158.684C308.441,165.764 313.157,173.434 318.845,179.995C326.921,189.309 336.739,196.429 336.739,196.429C337.789,197.19 339.211,197.19 340.261,196.429C340.261,196.429 350.079,189.309 358.155,179.995C363.843,173.434 368.559,165.764 368.994,158.684C370.101,140.672 355.323,126 338.5,126ZM338.5,129C353.678,129 366.998,142.249 366,158.5C365,174.781 338.5,194 338.5,194C338.5,194 312,174.781 311,158.5C310.002,142.249 323.322,129 338.5,129Z"/>
                </g>
                <g transform="matrix(0.481154,0,0,0.481154,23.6294,59.6712)">
                    <path d="M338.5,129C353.678,129 366.998,142.249 366,158.5C365,174.781 338.5,194 338.5,194C338.5,194 312,174.781 311,158.5C310.002,142.249 323.322,129 338.5,129Z" style="fill:rgb(255,107,0);"/>
                </g>
                <g transform="matrix(0.34821,0,0,0.34821,68.6308,76.7747)">
                    <path d="M338.5,129C353.678,129 366.998,142.249 366,158.5C365,174.781 338.5,194 338.5,194C338.5,194 312,174.781 311,158.5C310.002,142.249 323.322,129 338.5,129Z" style="fill:rgb(255,191,0);"/>
                </g>
                <g transform="matrix(0.695,0,0,0.695,-44.935,30)">
                    <path d="M292.158,129.108C292.158,126.919 288.158,106.163 288.158,107.108C288.158,117.655 305.491,129.217 333,129.217C360.509,129.217 376.842,117.655 376.842,107.108C376.842,106.259 372.842,127.805 372.842,129.108C372.842,139.655 360.509,148.217 333,148.217C305.491,148.217 292.158,139.655 292.158,129.108Z" style="fill:rgb(101,101,101);"/>
                    <path d="M289.102,111.435C288.479,109.996 288.158,108.543 288.158,107.108C288.158,106.81 288.557,108.675 289.102,111.435C293.061,120.586 309.233,129.217 333,129.217C356.737,129.217 372.153,120.608 375.934,111.47C376.461,108.718 376.842,106.846 376.842,107.108C376.842,108.554 376.535,110.019 375.934,111.47C374.754,117.633 372.842,128.207 372.842,129.108C372.842,139.655 360.509,148.217 333,148.217C305.491,148.217 292.158,139.655 292.158,129.108C292.158,127.61 290.285,117.418 289.102,111.435ZM294.052,121.72C294.681,125.317 295.158,128.335 295.158,129.108C295.158,133.408 298.107,137.126 303.628,139.946C310.096,143.249 319.863,145.217 333,145.217C346.108,145.217 355.616,143.263 361.831,139.967C367.141,137.151 369.842,133.401 369.842,129.108C369.842,128.64 370.336,125.636 370.981,121.96C363.239,127.791 350.218,132.217 333,132.217C315.69,132.217 302.249,127.746 294.244,121.864L294.052,121.72Z"/>
                </g>
            </g>
        </g>
    </g>
</svg>
